<?xml version="1.0" encoding="UTF-8" standalone="no"?>
<svg
   xmlns:dc="http://purl.org/dc/elements/1.1/"
   xmlns:cc="http://creativecommons.org/ns#"
   xmlns:rdf="http://www.w3.org/1999/02/22-rdf-syntax-ns#"
   xmlns:svg="http://www.w3.org/2000/svg"
   xmlns="http://www.w3.org/2000/svg"
   xmlns:xlink="http://www.w3.org/1999/xlink"
   xmlns:sodipodi="http://sodipodi.sourceforge.net/DTD/sodipodi-0.dtd"
   xmlns:inkscape="http://www.inkscape.org/namespaces/inkscape"
   width="512"
   height="512"
   viewBox="0 0 135.46666 135.46666"
   version="1.1"
   id="svg8"
   sodipodi:docname="icon.svg"
   inkscape:version="1.0.1 (3bc2e813f5, 2020-09-07)">
  <sodipodi:namedview
     pagecolor="#ffffff"
     bordercolor="#666666"
     borderopacity="1"
     objecttolerance="10"
     gridtolerance="10"
     guidetolerance="10"
     inkscape:pageopacity="0"
     inkscape:pageshadow="2"
     inkscape:window-width="1920"
     inkscape:window-height="1017"
     id="namedview18"
     showgrid="false"
     inkscape:zoom="0.83007813"
     inkscape:cx="125.12981"
     inkscape:cy="236.77686"
     inkscape:window-x="-8"
     inkscape:window-y="-8"
     inkscape:window-maximized="1"
     inkscape:current-layer="svg8" />
  <defs
     id="defs2">
    <linearGradient
       id="linearGradient887">
      <stop
         style="stop-color:#075e9d;stop-opacity:1"
         offset="0"
         id="stop883" />
      <stop
         style="stop-color:#ffffff;stop-opacity:1"
         offset="1"
         id="stop885" />
    </linearGradient>
    <pattern
       id="EMFhbasepattern"
       patternUnits="userSpaceOnUse"
       width="6"
       height="6"
       x="0"
       y="0" />
    <linearGradient
       xlink:href="#linearGradient887"
       id="linearGradient907"
       x1="67.945457"
       y1="69.135979"
       x2="-22.79039"
       y2="-42.805298"
       gradientUnits="userSpaceOnUse" />
    <pattern
       id="EMFhbasepattern-1"
       patternUnits="userSpaceOnUse"
       width="6"
       height="6"
       x="0"
       y="0" />
  </defs>
  <metadata
     id="metadata5">
    <rdf:RDF>
      <cc:Work
         rdf:about="">
        <dc:format>image/svg+xml</dc:format>
        <dc:type
           rdf:resource="http://purl.org/dc/dcmitype/StillImage" />
        <dc:title />
      </cc:Work>
    </rdf:RDF>
  </metadata>
  <circle
     style="fill:url(#linearGradient907);fill-opacity:1;stroke:none;stroke-width:1.04465"
     id="path17"
     cx="68.886154"
     cy="68.508186"
     r="56.957581" />
  <g
     aria-label="ދ"
     id="text12"
     style="font-size:109.298px;line-height:1.25;font-family:'Times New Roman';-inkscape-font-specification:'Times New Roman, ';letter-spacing:0px;fill:#ffffff;stroke-width:6.83108"
     transform="matrix(0.85506376,0,0,0.85506376,13.860426,12.692099)">
    <path
       d="m 118.00659,63.233132 c 0.0729,0.364327 0.0364,1.165845 -0.1093,2.404555 -0.36433,1.165845 -0.98368,2.149527 -1.85806,2.951046 -0.43719,0.437192 -0.98368,0.801519 -1.63947,1.09298 l -0.87439,0.327894 1.20228,1.202278 c 0.87439,1.748768 1.31158,3.606834 1.31158,5.574198 0,1.238711 -0.3279,2.550287 -0.98369,3.934728 -0.65579,2.040229 -1.63947,3.82543 -2.95104,5.355602 -1.96737,1.748768 -4.18976,3.169642 -6.66718,4.262622 -1.09298,0.364327 -2.40456,0.837951 -3.93473,1.420874 -0.94725,0.291461 -2.440985,0.437192 -4.481215,0.437192 -1.748768,0 -4.080459,-0.182163 -6.995072,-0.54649 l -3.606834,-0.874384 -2.295258,1.967364 c -1.311576,1.165845 -2.623152,2.222392 -3.934728,3.169641 -1.020115,0.728653 -2.73245,1.821633 -5.137005,3.27894 -0.218596,0.145731 -2.149527,1.348008 -5.792794,3.606838 -1.238711,0.65579 -3.169642,1.71233 -5.792794,3.16964 l -4.481218,2.51385 -3.27894,1.53017 c -2.258825,1.02012 -4.116891,1.53018 -5.574198,1.53018 -1.238711,0 -2.440989,-0.36433 -3.606834,-1.09298 -1.457306,-0.65579 -2.805314,-2.73246 -4.044025,-6.22999 -0.07287,-0.80152 -0.182163,-1.93093 -0.327894,-3.38824 0.582923,-1.092979 1.275143,-1.894497 2.076662,-2.404554 0.728653,-0.510057 1.894498,-0.728653 3.497535,-0.655788 l 1.748768,0.874384 c 0.582923,0.291461 1.202278,0.619355 1.858066,0.983682 0.655788,0.291464 1.165845,0.510056 1.530172,0.655786 1.311576,-0.364325 2.841748,-0.98368 4.590516,-1.858064 l 4.809112,-2.73245 5.027708,-2.951045 4.37192,-2.623152 c 0.947249,-0.437192 1.785201,-0.947249 2.513854,-1.530172 1.238711,-1.020115 2.841748,-2.258825 4.809111,-3.716132 -0.510057,-1.020115 -0.765086,-1.967364 -0.765086,-2.841748 0,-2.040229 0.437192,-3.497536 1.311576,-4.37192 0.291461,-0.218596 0.582923,-0.473625 0.874384,-0.765086 0.364327,-0.364327 0.655788,-0.619355 0.874384,-0.765086 0.291461,-0.218596 0.692221,-0.400759 1.202278,-0.54649 1.748768,-0.582923 2.951046,-0.874384 3.606834,-0.874384 0.145731,0 0.874384,0.07286 2.18596,0.218596 2.113095,0.655788 3.351805,1.930931 3.716132,3.82543 v 2.841748 l 2.513854,0.655788 c 0.510057,0.07286 1.748768,0.109298 3.716132,0.109298 0.145731,0 1.129413,-0.182163 2.951047,-0.54649 l 0.43719,-0.109298 c 0.29146,-0.145731 0.54649,-0.255029 0.76509,-0.327894 0.21859,-0.145731 0.47362,-0.291461 0.76508,-0.437192 0.36433,-0.218596 0.65579,-0.400759 0.87439,-0.54649 0.29146,-0.218596 0.54649,-0.473625 0.76508,-0.765086 0.29146,-0.291461 0.51006,-0.582923 0.65579,-0.874384 0.14573,-0.364327 0.2186,-0.728653 0.2186,-1.09298 0.0729,-0.364327 -0.1093,-0.910817 -0.54649,-1.63947 -0.43719,-0.801519 -0.94725,-1.420874 -1.53018,-1.858066 l -1.20227,-0.765086 c -0.65579,-0.218596 -1.71234,-0.54649 -3.169645,-0.983682 -1.165845,-0.655788 -2.040229,-1.420874 -2.623152,-2.295258 -0.07286,-0.145731 -0.109298,-0.655788 -0.109298,-1.530172 v -0.765086 -0.765086 -0.655788 c 0.07286,-0.291461 0.109298,-0.473625 0.109298,-0.54649 0.07287,-0.07287 0.145731,-0.218596 0.218596,-0.437192 0.145731,-0.218596 0.291461,-0.364327 0.437192,-0.437192 l 0.655788,-0.437192 0.874384,-0.437192 2.185957,-1.202277 c 0.14277,-0.07852 0.47363,-0.07287 0.98368,0 h 1.85807 c 0.80152,0 1.31158,-0.03643 1.53017,-0.109298 0.2186,-0.07287 0.65579,-0.218596 1.31158,-0.437192 0.72865,-0.291461 1.31158,-0.510057 1.74877,-0.655788 1.89449,-1.384441 3.60683,-1.967364 5.137,-1.748768 2.62315,0 4.11689,1.09298 4.48122,3.27894 z"
       style="font-style:normal;font-variant:normal;font-weight:normal;font-stretch:normal;font-family:'MV Faseyha';-inkscape-font-specification:'MV Faseyha';fill:#ffffff;stroke-width:6.83108"
       id="path880" />
  </g>
  <g
     id="g878"
     transform="matrix(-2.852013,0,0,2.852013,53.553022,-93.516824)"
     style="fill:#ffffff;stroke:none">
    <path
       style="color:#000000;font-style:normal;font-variant:normal;font-weight:normal;font-stretch:normal;font-size:medium;line-height:normal;font-family:sans-serif;font-variant-ligatures:normal;font-variant-position:normal;font-variant-caps:normal;font-variant-numeric:normal;font-variant-alternates:normal;font-variant-east-asian:normal;font-feature-settings:normal;font-variation-settings:normal;text-indent:0;text-align:start;text-decoration:none;text-decoration-line:none;text-decoration-style:solid;text-decoration-color:#000000;letter-spacing:normal;word-spacing:normal;text-transform:none;writing-mode:lr-tb;direction:ltr;text-orientation:mixed;dominant-baseline:auto;baseline-shift:baseline;text-anchor:start;white-space:normal;shape-padding:0;shape-margin:0;inline-size:0;clip-rule:nonzero;display:inline;overflow:visible;visibility:visible;opacity:1;isolation:auto;mix-blend-mode:normal;color-interpolation:sRGB;color-interpolation-filters:linearRGB;solid-color:#000000;solid-opacity:1;vector-effect:none;fill:#ffffff;fill-opacity:1;fill-rule:nonzero;stroke:none;stroke-width:1.79917;stroke-linecap:round;stroke-linejoin:round;stroke-miterlimit:4;stroke-dasharray:none;stroke-dashoffset:0;stroke-opacity:1;color-rendering:auto;image-rendering:auto;shape-rendering:auto;text-rendering:auto;enable-background:accumulate;stop-color:#000000;stop-opacity:1"
       d="m -0.55282727,45.965773 a 0.8996733,0.8996733 0 0 0 -0.51171903,0.175782 l -4.105468,3.03125 h -2.976563 a 0.8996733,0.8996733 0 0 0 -0.900391,0.898437 v 5.376953 a 0.8996733,0.8996733 0 0 0 0.902344,0.900391 l 2.978516,-0.0059 4.101562,3.037109 A 0.8996733,0.8996733 0 0 0 0.36904773,58.655227 V 46.864211 a 0.8996733,0.8996733 0 0 0 -0.921875,-0.898438 z m -0.87695303,2.681641 v 8.222656 l -2.90625,-2.15039 a 0.8996733,0.8996733 0 0 0 -0.53711,-0.175781 l -2.375,0.0039 v -3.576172 h 2.375 a 0.8996733,0.8996733 0 0 0 0.535157,-0.175781 z"
       id="path863" />
    <path
       style="color:#000000;font-style:normal;font-variant:normal;font-weight:normal;font-stretch:normal;font-size:medium;line-height:normal;font-family:sans-serif;font-variant-ligatures:normal;font-variant-position:normal;font-variant-caps:normal;font-variant-numeric:normal;font-variant-alternates:normal;font-variant-east-asian:normal;font-feature-settings:normal;font-variation-settings:normal;text-indent:0;text-align:start;text-decoration:none;text-decoration-line:none;text-decoration-style:solid;text-decoration-color:#000000;letter-spacing:normal;word-spacing:normal;text-transform:none;writing-mode:lr-tb;direction:ltr;text-orientation:mixed;dominant-baseline:auto;baseline-shift:baseline;text-anchor:start;white-space:normal;shape-padding:0;shape-margin:0;inline-size:0;clip-rule:nonzero;display:inline;overflow:visible;visibility:visible;opacity:1;isolation:auto;mix-blend-mode:normal;color-interpolation:sRGB;color-interpolation-filters:linearRGB;solid-color:#000000;solid-opacity:1;vector-effect:none;fill:#ffffff;fill-opacity:1;fill-rule:nonzero;stroke:none;stroke-width:1.79917;stroke-linecap:round;stroke-linejoin:round;stroke-miterlimit:4;stroke-dasharray:none;stroke-dashoffset:0;stroke-opacity:1;color-rendering:auto;image-rendering:auto;shape-rendering:auto;text-rendering:auto;enable-background:accumulate;stop-color:#000000;stop-opacity:1"
       d="m 3.4237357,48.629836 a 0.89958501,0.89958501 0 0 0 -0.625,0.263672 0.89958501,0.89958501 0 0 0 0,1.271484 c 0.742498,0.742498 1.160156,1.748778 1.160156,2.798828 -1e-6,1.050051 -0.417659,2.056331 -1.160156,2.798829 a 0.89958501,0.89958501 0 0 0 0,1.271484 0.89958501,0.89958501 0 0 0 1.271484,0 c 1.079419,-1.079419 1.687499,-2.543784 1.6875,-4.070313 0,-1.526529 -0.608081,-2.990893 -1.6875,-4.070312 a 0.89958501,0.89958501 0 0 0 -0.646484,-0.263672 z"
       id="path868" />
    <path
       style="color:#000000;font-style:normal;font-variant:normal;font-weight:normal;font-stretch:normal;font-size:medium;line-height:normal;font-family:sans-serif;font-variant-ligatures:normal;font-variant-position:normal;font-variant-caps:normal;font-variant-numeric:normal;font-variant-alternates:normal;font-variant-east-asian:normal;font-feature-settings:normal;font-variation-settings:normal;text-indent:0;text-align:start;text-decoration:none;text-decoration-line:none;text-decoration-style:solid;text-decoration-color:#000000;letter-spacing:normal;word-spacing:normal;text-transform:none;writing-mode:lr-tb;direction:ltr;text-orientation:mixed;dominant-baseline:auto;baseline-shift:baseline;text-anchor:start;white-space:normal;shape-padding:0;shape-margin:0;inline-size:0;clip-rule:nonzero;display:inline;overflow:visible;visibility:visible;opacity:1;isolation:auto;mix-blend-mode:normal;color-interpolation:sRGB;color-interpolation-filters:linearRGB;solid-color:#000000;solid-opacity:1;vector-effect:none;fill:#ffffff;fill-opacity:1;fill-rule:nonzero;stroke:none;stroke-width:1.79917;stroke-linecap:round;stroke-linejoin:round;stroke-miterlimit:4;stroke-dasharray:none;stroke-dashoffset:0;stroke-opacity:1;color-rendering:auto;image-rendering:auto;shape-rendering:auto;text-rendering:auto;enable-background:accumulate;stop-color:#000000;stop-opacity:1"
       d="m 6.5545947,45.497023 a 0.89958501,0.89958501 0 0 0 -0.625,0.263672 0.89958501,0.89958501 0 0 0 0,1.273438 c 1.573062,1.573062 2.457031,3.705042 2.457031,5.929687 0,2.224645 -0.883969,4.356626 -2.457031,5.929688 a 0.89958501,0.89958501 0 0 0 0,1.273437 0.89958501,0.89958501 0 0 0 1.273437,0 c 1.909983,-1.909982 2.9824223,-4.502001 2.9824223,-7.203125 0,-2.701123 -1.0724383,-5.293142 -2.9824223,-7.203125 a 0.89958501,0.89958501 0 0 0 -0.648437,-0.263672 z"
       id="path873" />
  </g>
</svg>
